# xmcd
#
# Track frame offsets: 
#        150
#        9610
#        24795
#        39667
#        57295
#        67322
#        82077
#        92072
#        102062
#        115365
#        124775
#        136852
#        148397
#        156785
#        165790
#        175425
#        183970
#        194937
#        205650
#        219302
#        230450
#        242737
#        251550
#        269987
#        278347
#        292592
#        303612
#        314775
#        322147
#
# Disc length: 4510 seconds
#
# Revision: 6
# Processed by: cddbd v1.5.1PL0 Copyright (c) Steve Scherf et al.
# Submitted via: ExactAudioCopy v0.95a5
#
DISCID=b4119c1d
DTITLE=Elvis Presley - Amazing Grace - His Greatest Sacred Performance
DTITLE=s [CD1]
DYEAR=1994
DGENRE=Gospel
TTITLE0=I Believe
TTITLE1=(There'll Be) Peace In The Valley (For Me)
TTITLE2=Take My Hand, Precious Lord
TTITLE3=It Is No Secret (What God Can Do)
TTITLE4=Milky White Way
TTITLE5=His Hand In Mine
TTITLE6=I Believe In The Man In The Sky
TTITLE7=He Knows Just What I Need
TTITLE8=Mansion Over The Hilltop
TTITLE9=In My Father's House
TTITLE10=Joshua Fit The Battle
TTITLE11=Swing Down Sweet Chariot
TTITLE12=I'm Gonna Walk Dem Golden Stairs
TTITLE13=If We Never Meet Again
TTITLE14=Known Only To Him
TTITLE15=Working On The Building
TTITLE16=Crying In The Chapel
TTITLE17=Run On
TTITLE18=How Great Thou Art
TTITLE19=Stand By Me
TTITLE20=Where No One Stands Alone
TTITLE21=So High
TTITLE22=Farther Along
TTITLE23=By And By
TTITLE24=In The Garden
TTITLE25=Somebody Bigger Than You And I
TTITLE26=Without Him
TTITLE27=If The Lord Wasn't Walking By My Side
TTITLE28=Where Could I Go But To The Lord
EXTD=YEAR: 1994
EXTT0=
EXTT1=
EXTT2=
EXTT3=
EXTT4=
EXTT5=
EXTT6=
EXTT7=
EXTT8=
EXTT9=
EXTT10=
EXTT11=
EXTT12=
EXTT13=
EXTT14=
EXTT15=
EXTT16=
EXTT17=
EXTT18=
EXTT19=
EXTT20=
EXTT21=
EXTT22=
EXTT23=
EXTT24=
EXTT25=
EXTT26=
EXTT27=
EXTT28=
PLAYORDER=
